<mxfile host="app.diagrams.net" modified="2024-04-24T11:36:36.830Z" agent="Mozilla/5.0 (Windows NT 10.0; Win64; x64) AppleWebKit/537.36 (KHTML, like Gecko) Chrome/124.0.0.0 Safari/537.36" etag="KSu8w3AfoA56giI3MiyG" version="24.2.9" type="device">
  <diagram name="Page-1" id="c4acf3e9-155e-7222-9cf6-157b1a14988f">
    <mxGraphModel dx="1050" dy="522" grid="1" gridSize="10" guides="1" tooltips="1" connect="1" arrows="1" fold="1" page="1" pageScale="1" pageWidth="850" pageHeight="1100" background="none" math="0" shadow="0">
      <root>
        <mxCell id="0" />
        <mxCell id="1" parent="0" />
        <mxCell id="5d2195bd80daf111-15" value="&lt;p style=&quot;text-align: left; margin: 4px 0px 0px;&quot;&gt;&lt;font face=&quot;Consolas, Courier New, monospace&quot;&gt;&lt;span style=&quot;font-size: 14px; white-space-collapse: preserve;&quot;&gt;class Field&lt;/span&gt;&lt;/font&gt;&lt;/p&gt;&lt;hr size=&quot;1&quot;&gt;&lt;p style=&quot;margin:0px;margin-left:4px;&quot;&gt;+ value&lt;br&gt;&lt;/p&gt;&lt;hr size=&quot;1&quot;&gt;&lt;p style=&quot;margin:0px;margin-left:4px;&quot;&gt;-__str__&lt;/p&gt;" style="verticalAlign=top;align=left;overflow=fill;fontSize=12;fontFamily=Helvetica;html=1;rounded=0;shadow=0;comic=0;labelBackgroundColor=none;strokeWidth=1" parent="1" vertex="1">
          <mxGeometry x="330" y="40" width="190" height="100" as="geometry" />
        </mxCell>
        <mxCell id="0LOMEroEy92tTTKYbsVd-2" value="&lt;p style=&quot;text-align: left; margin: 4px 0px 0px;&quot;&gt;&lt;font face=&quot;Consolas, Courier New, monospace&quot;&gt;&lt;span style=&quot;font-size: 14px; white-space-collapse: preserve;&quot;&gt;class Name&lt;/span&gt;&lt;/font&gt;&lt;/p&gt;&lt;hr size=&quot;1&quot;&gt;&lt;p style=&quot;margin:0px;margin-left:4px;&quot;&gt;+ value&lt;br&gt;&lt;/p&gt;&lt;hr size=&quot;1&quot;&gt;&lt;p style=&quot;margin:0px;margin-left:4px;&quot;&gt;&lt;br&gt;&lt;/p&gt;" style="verticalAlign=top;align=left;overflow=fill;fontSize=12;fontFamily=Helvetica;html=1;rounded=0;shadow=0;comic=0;labelBackgroundColor=none;strokeWidth=1" vertex="1" parent="1">
          <mxGeometry x="80" y="220" width="190" height="100" as="geometry" />
        </mxCell>
        <mxCell id="0LOMEroEy92tTTKYbsVd-3" value="&lt;p style=&quot;text-align: left; margin: 4px 0px 0px;&quot;&gt;&lt;font face=&quot;Consolas, Courier New, monospace&quot;&gt;&lt;span style=&quot;font-size: 14px; white-space-collapse: preserve;&quot;&gt;class Phone&lt;/span&gt;&lt;/font&gt;&lt;/p&gt;&lt;hr size=&quot;1&quot;&gt;&lt;p style=&quot;margin:0px;margin-left:4px;&quot;&gt;+ value&lt;br&gt;&lt;/p&gt;&lt;p style=&quot;margin:0px;margin-left:4px;&quot;&gt;- __value&lt;/p&gt;&lt;hr size=&quot;1&quot;&gt;&lt;p style=&quot;margin:0px;margin-left:4px;&quot;&gt;+ value&lt;/p&gt;" style="verticalAlign=top;align=left;overflow=fill;fontSize=12;fontFamily=Helvetica;html=1;rounded=0;shadow=0;comic=0;labelBackgroundColor=none;strokeWidth=1" vertex="1" parent="1">
          <mxGeometry x="335" y="220" width="190" height="100" as="geometry" />
        </mxCell>
        <mxCell id="0LOMEroEy92tTTKYbsVd-4" value="&lt;p style=&quot;text-align: left; margin: 4px 0px 0px;&quot;&gt;&lt;font face=&quot;Consolas, Courier New, monospace&quot;&gt;&lt;span style=&quot;font-size: 14px; white-space-collapse: preserve;&quot;&gt;class Birthday&lt;/span&gt;&lt;/font&gt;&lt;/p&gt;&lt;hr size=&quot;1&quot;&gt;&lt;p style=&quot;margin:0px;margin-left:4px;&quot;&gt;+ date&lt;br&gt;&lt;/p&gt;&lt;hr size=&quot;1&quot;&gt;&lt;p style=&quot;margin:0px;margin-left:4px;&quot;&gt;+ __str__&lt;/p&gt;" style="verticalAlign=top;align=left;overflow=fill;fontSize=12;fontFamily=Helvetica;html=1;rounded=0;shadow=0;comic=0;labelBackgroundColor=none;strokeWidth=1" vertex="1" parent="1">
          <mxGeometry x="590" y="220" width="190" height="100" as="geometry" />
        </mxCell>
        <mxCell id="0LOMEroEy92tTTKYbsVd-5" value="&lt;p style=&quot;text-align: left; margin: 4px 0px 0px;&quot;&gt;&lt;font face=&quot;Consolas, Courier New, monospace&quot;&gt;&lt;span style=&quot;font-size: 14px; white-space-collapse: preserve;&quot;&gt;class Record&lt;/span&gt;&lt;/font&gt;&lt;/p&gt;&lt;hr size=&quot;1&quot;&gt;&lt;p style=&quot;margin:0px;margin-left:4px;&quot;&gt;+ name:Name()&lt;br&gt;&lt;/p&gt;&lt;p style=&quot;margin:0px;margin-left:4px;&quot;&gt;+phone&lt;/p&gt;&lt;p style=&quot;margin:0px;margin-left:4px;&quot;&gt;+birthday&lt;/p&gt;&lt;hr size=&quot;1&quot;&gt;&lt;p style=&quot;margin:0px;margin-left:4px;&quot;&gt;+add_phone()&lt;/p&gt;&lt;p style=&quot;margin:0px;margin-left:4px;&quot;&gt;+find_phone()&lt;/p&gt;&lt;p style=&quot;margin:0px;margin-left:4px;&quot;&gt;+remove_phone()&lt;/p&gt;&lt;p style=&quot;margin:0px;margin-left:4px;&quot;&gt;+edit_phone()&lt;/p&gt;&lt;p style=&quot;margin:0px;margin-left:4px;&quot;&gt;+add_birthday()&lt;/p&gt;&lt;p style=&quot;margin:0px;margin-left:4px;&quot;&gt;- __str__()&lt;/p&gt;&lt;p style=&quot;margin:0px;margin-left:4px;&quot;&gt;&lt;br&gt;&lt;/p&gt;" style="verticalAlign=top;align=left;overflow=fill;fontSize=12;fontFamily=Helvetica;html=1;rounded=0;shadow=0;comic=0;labelBackgroundColor=none;strokeWidth=1" vertex="1" parent="1">
          <mxGeometry x="335" y="430" width="190" height="180" as="geometry" />
        </mxCell>
        <mxCell id="0LOMEroEy92tTTKYbsVd-6" value="" style="endArrow=classic;html=1;rounded=0;entryX=0.389;entryY=1.02;entryDx=0;entryDy=0;entryPerimeter=0;exitX=0.334;exitY=0.004;exitDx=0;exitDy=0;exitPerimeter=0;" edge="1" parent="1" source="0LOMEroEy92tTTKYbsVd-3" target="5d2195bd80daf111-15">
          <mxGeometry width="50" height="50" relative="1" as="geometry">
            <mxPoint x="400" y="210" as="sourcePoint" />
            <mxPoint x="450" y="160" as="targetPoint" />
          </mxGeometry>
        </mxCell>
        <mxCell id="0LOMEroEy92tTTKYbsVd-11" value="" style="endArrow=none;html=1;rounded=0;exitX=0.592;exitY=0.004;exitDx=0;exitDy=0;exitPerimeter=0;entryX=0.467;entryY=0.004;entryDx=0;entryDy=0;entryPerimeter=0;" edge="1" parent="1" source="0LOMEroEy92tTTKYbsVd-2" target="0LOMEroEy92tTTKYbsVd-4">
          <mxGeometry width="50" height="50" relative="1" as="geometry">
            <mxPoint x="390" y="200" as="sourcePoint" />
            <mxPoint x="410" y="180" as="targetPoint" />
            <Array as="points">
              <mxPoint x="400" y="190" />
            </Array>
          </mxGeometry>
        </mxCell>
        <mxCell id="0LOMEroEy92tTTKYbsVd-12" value="" style="rhombus;whiteSpace=wrap;html=1;strokeColor=#000000;fillColor=#141010;" vertex="1" parent="1">
          <mxGeometry x="410" y="400" width="30" height="30" as="geometry" />
        </mxCell>
        <mxCell id="0LOMEroEy92tTTKYbsVd-14" value="" style="endArrow=classic;html=1;rounded=0;entryX=0.5;entryY=1;entryDx=0;entryDy=0;" edge="1" parent="1" target="0LOMEroEy92tTTKYbsVd-3">
          <mxGeometry width="50" height="50" relative="1" as="geometry">
            <mxPoint x="425" y="400" as="sourcePoint" />
            <mxPoint x="475" y="350" as="targetPoint" />
          </mxGeometry>
        </mxCell>
        <mxCell id="0LOMEroEy92tTTKYbsVd-15" value="" style="endArrow=classic;html=1;rounded=0;entryX=0.398;entryY=1.004;entryDx=0;entryDy=0;entryPerimeter=0;" edge="1" parent="1" target="0LOMEroEy92tTTKYbsVd-4">
          <mxGeometry width="50" height="50" relative="1" as="geometry">
            <mxPoint x="430" y="400" as="sourcePoint" />
            <mxPoint x="480" y="350" as="targetPoint" />
            <Array as="points">
              <mxPoint x="620" y="370" />
            </Array>
          </mxGeometry>
        </mxCell>
        <mxCell id="0LOMEroEy92tTTKYbsVd-16" value="" style="endArrow=classic;html=1;rounded=0;exitX=0.5;exitY=0;exitDx=0;exitDy=0;" edge="1" parent="1" source="0LOMEroEy92tTTKYbsVd-12">
          <mxGeometry width="50" height="50" relative="1" as="geometry">
            <mxPoint x="120" y="370" as="sourcePoint" />
            <mxPoint x="170" y="320" as="targetPoint" />
            <Array as="points">
              <mxPoint x="250" y="380" />
            </Array>
          </mxGeometry>
        </mxCell>
        <mxCell id="0LOMEroEy92tTTKYbsVd-17" value="" style="endArrow=classic;html=1;rounded=0;" edge="1" parent="1">
          <mxGeometry width="50" height="50" relative="1" as="geometry">
            <mxPoint x="425" y="710" as="sourcePoint" />
            <mxPoint x="425" y="610" as="targetPoint" />
          </mxGeometry>
        </mxCell>
        <mxCell id="0LOMEroEy92tTTKYbsVd-18" value="&lt;p style=&quot;text-align: left; margin: 4px 0px 0px;&quot;&gt;&lt;font face=&quot;Consolas, Courier New, monospace&quot;&gt;&lt;span style=&quot;font-size: 14px; white-space-collapse: preserve;&quot;&gt;class AddressBook&lt;/span&gt;&lt;/font&gt;&lt;/p&gt;&lt;hr size=&quot;1&quot;&gt;&lt;p style=&quot;margin:0px;margin-left:4px;&quot;&gt;&lt;br&gt;&lt;/p&gt;&lt;hr size=&quot;1&quot;&gt;&lt;p style=&quot;margin:0px;margin-left:4px;&quot;&gt;+add_record()&lt;/p&gt;&lt;p style=&quot;margin:0px;margin-left:4px;&quot;&gt;+find()&lt;/p&gt;&lt;p style=&quot;margin:0px;margin-left:4px;&quot;&gt;+delete()&lt;/p&gt;&lt;p style=&quot;margin:0px;margin-left:4px;&quot;&gt;+get_upcoming_birthdays()&lt;/p&gt;&lt;p style=&quot;margin:0px;margin-left:4px;&quot;&gt;&lt;br&gt;&lt;/p&gt;&lt;p style=&quot;margin:0px;margin-left:4px;&quot;&gt;&lt;br&gt;&lt;/p&gt;" style="verticalAlign=top;align=left;overflow=fill;fontSize=12;fontFamily=Helvetica;html=1;rounded=0;shadow=0;comic=0;labelBackgroundColor=none;strokeWidth=1" vertex="1" parent="1">
          <mxGeometry x="330" y="750" width="190" height="150" as="geometry" />
        </mxCell>
        <mxCell id="0LOMEroEy92tTTKYbsVd-19" value="" style="rhombus;whiteSpace=wrap;html=1;strokeColor=#000000;fillColor=#141010;" vertex="1" parent="1">
          <mxGeometry x="410" y="710" width="30" height="30" as="geometry" />
        </mxCell>
        <mxCell id="0LOMEroEy92tTTKYbsVd-20" value="class UserDict" style="rounded=0;whiteSpace=wrap;html=1;" vertex="1" parent="1">
          <mxGeometry x="30" y="680" width="120" height="60" as="geometry" />
        </mxCell>
        <mxCell id="0LOMEroEy92tTTKYbsVd-21" value="" style="endArrow=classic;html=1;rounded=0;exitX=0.004;exitY=0.325;exitDx=0;exitDy=0;exitPerimeter=0;" edge="1" parent="1" source="0LOMEroEy92tTTKYbsVd-18">
          <mxGeometry width="50" height="50" relative="1" as="geometry">
            <mxPoint x="65" y="790" as="sourcePoint" />
            <mxPoint x="115" y="740" as="targetPoint" />
            <Array as="points">
              <mxPoint x="120" y="800" />
            </Array>
          </mxGeometry>
        </mxCell>
      </root>
    </mxGraphModel>
  </diagram>
</mxfile>
